<?xml version="1.0" encoding="UTF-8" standalone="no"?>
<svg version="1.1"
   width="550"
   height="550"
   viewBox="0 0 550 550"
   xmlns="http://www.w3.org/2000/svg">
      <g>
      <path
         style="fill:#bdbdbd"
         d="M 242.66665,544.89658 C 228.02735,543.25361 202.7294,537.63065 188.23047,532.79707 88.611953,499.58676 18.829378,416.45212 2.4474261,311.46665 -0.26270752,294.09847 -0.22733674,250.96825 2.511284,233.59999 6.7544628,206.68986 17.152805,173.62471 28.4454,151.13344 68.713379,70.932381 144.14415,16.54543 234.66665,2.4441868 c 17.31442,-2.69717243 60.54848,-2.67015173 77.65021,0.04853 49.61034,7.8866182 94.71266,27.5818512 132.49705,57.8586772 11.62879,9.318215 31.64947,29.37124 40.91581,40.981936 33.19936,41.59867 53.73633,91.66642 59.40304,144.82064 1.86368,17.48147 0.7792,53.76439 -2.09564,70.11268 -6.51736,37.06216 -19.77719,72.47686 -37.94081,101.33333 -15.27021,24.2597 -39.49358,51.6289 -60.29634,68.12686 -40.99431,32.5112 -88.28396,52.3941 -139.77674,58.76903 -14.48355,1.79309 -48.02921,2.00866 -62.35658,0.40071 z" />
      <path
         style="fill:#919396"
         d="m 246.93332,544.92603 c -22.25866,-2.13071 -50.8371,-8.90976 -71.31695,-16.91698 C 92.658926,495.5743 30.92204,426.14851 9.0098002,340.6528 2.8754485,316.71819 0.74595785,299.30172 0.7461236,273.06665 0.74628035,248.25756 2.0523478,235.78219 6.9476696,213.83033 22.085524,145.94837 61.985445,87.072618 119.46666,47.798928 153.70618,24.404985 191.87812,9.6101066 234.82071,3.0894076 252.92818,0.33984367 287.2095,-0.19140439 304.53332,2.0090908 398.31127,13.920898 476.79666,69.227584 517.30931,151.94699 c 9.9871,20.39184 14.9825,33.62454 19.7509,52.31966 17.0432,66.82013 9.83333,132.04478 -21.40034,193.59999 -49.94772,98.43677 -158.14121,157.64517 -268.72655,147.05939 z m 38.13886,-35.67546 c 11.3979,-7.91897 12.46192,-24.03874 2.22549,-33.71607 -3.94611,-3.73058 -7.83732,-5.13453 -14.23102,-5.13453 -6.39369,0 -10.28491,1.40395 -14.23102,5.13453 -11.82583,11.17992 -8.30354,30.04653 6.79623,36.40299 1.44913,0.61003 5.39728,0.96284 8.77365,0.78402 4.72561,-0.25028 7.18123,-1.04934 10.66667,-3.47094 z M 127.23425,447.6297 c 4.81803,-2.01701 11.09591,-9.35211 12.51514,-14.62274 4.75333,-17.65252 -14.65716,-33.30379 -30.9494,-24.95543 -3.71574,1.90399 -9.249282,7.8986 -10.60124,11.48455 -2.886862,7.65716 -0.412139,18.50287 5.43077,23.80086 6.18828,5.61115 16.1347,7.42001 23.60473,4.29276 z m 312.1721,-2.12988 c 13.71774,-9.07797 12.39994,-29.58294 -2.38599,-37.12616 -5.88009,-2.9998 -15.98067,-2.4426 -21.25675,1.17263 -11.30281,7.74481 -12.69529,24.62654 -2.79316,33.86292 6.77264,6.31729 18.63177,7.25513 26.4359,2.09061 z M 66.910931,291.04902 c 1.929367,-1.19242 4.815693,-4.39954 6.414058,-7.12694 8.334364,-14.22152 -1.797152,-32.3422 -18.08205,-32.34058 -6.734102,6.7e-4 -9.93209,1.09549 -14.549843,4.98107 -4.964786,4.17759 -7.629695,10.03643 -7.608884,16.72825 0.053,17.04422 18.939355,26.95909 33.826719,17.7582 z m 434.448759,0.95096 c 2.77427,-1.40319 6.08009,-4.32103 7.95935,-7.02521 2.80912,-4.04223 3.21426,-5.5432 3.21426,-11.90812 0,-6.36492 -0.40514,-7.86589 -3.21426,-11.90811 -7.99034,-11.49782 -24.06582,-12.60312 -33.78454,-2.32291 -3.74558,3.96197 -5.13453,7.83969 -5.13453,14.33472 0,8.78627 3.97908,15.09879 12.26667,19.4602 4.75001,2.49973 13.05819,2.21947 18.69305,-0.63057 z M 128.28504,138.02258 c 4.84182,-2.45232 7.11194,-4.64129 9.3394,-9.00553 4.57084,-8.9556 3.53435,-17.44893 -3.01517,-24.70724 -4.80513,-5.325129 -9.10237,-7.243149 -16.22799,-7.243149 -12.03381,0 -21.314619,9.285369 -21.314619,21.325099 0,6.77449 1.900237,11.28015 6.672559,15.82134 6.87839,6.54525 16.26738,8.00241 24.54582,3.80948 z m 308.95658,-0.37582 c 8.26382,-4.21588 12.55962,-12.35324 11.45319,-21.69533 -2.47364,-20.885982 -30.63237,-25.830081 -40.20827,-7.05975 -2.4559,4.81395 -2.75138,13.33715 -0.6359,18.34257 1.80373,4.26779 6.59851,9.14645 10.816,11.00523 4.82853,2.12808 13.80312,1.84171 18.57498,-0.59272 z M 284.35412,73.071793 c 10.70718,-6.274826 13.64714,-21.86754 5.93037,-31.453005 -8.91767,-11.077182 -24.81285,-11.513516 -33.72192,-0.925692 -3.88558,4.617753 -4.9804,7.815741 -4.98107,14.549843 -0.002,16.601289 18.08114,26.438633 32.77262,17.828854 z"       />
      <path
         style="fill:#98c83a"
         d="m 252.79998,545.04648 c -14.99932,-1.1494 -31.84917,-3.98584 -47.46666,-7.99035 -15.44486,-3.96025 -35.73333,-10.96197 -35.73333,-12.33186 0,-0.48902 8.93272,-22.39204 19.8505,-48.67338 10.91777,-26.28134 20.07517,-48.55319 20.34978,-49.49302 0.36957,-1.26485 -1.62211,-2.71621 -7.66654,-5.5867 -17.12733,-8.13373 -36.40559,-22.40599 -49.56801,-36.69663 -8.30618,-9.01815 -20.63586,-26.64315 -25.81315,-36.89931 -13.51064,-26.76441 -19.77477,-59.04905 -17.06689,-87.9609 3.75027,-40.04153 19.58086,-73.99943 47.6015,-102.10912 27.81956,-27.90796 62.04221,-43.86519 102.12715,-47.61953 22.14641,-2.07423 48.13256,1.31788 69.48094,9.06971 l 7.29529,2.649 1.64774,-3.9022 c 0.90625,-2.14621 10.17579,-24.454615 20.59897,-49.574237 10.42318,-25.119622 19.16896,-45.889765 19.43507,-46.155874 0.71457,-0.714567 18.03416,7.433647 29.06097,13.67209 75.07849,42.475823 124.78366,116.475971 136.68163,203.489151 2.69579,19.71511 2.43287,52.43704 -0.58158,72.37928 -9.40382,62.21144 -37.3362,116.53209 -81.7052,158.8937 -55.5708,53.05662 -132.49983,80.66623 -208.52818,74.84018 z m 28.35538,-33.1663 c 3.8326,-1.15939 9.45273,-6.34708 11.93362,-11.01537 2.53488,-4.76991 2.24857,-14.00023 -0.60393,-19.46971 -4.65479,-8.92527 -15.0611,-13.66966 -24.46575,-11.1543 -15.33671,4.10195 -21.77936,20.8534 -12.96672,33.71461 5.83264,8.51218 14.98031,11.2894 26.10278,7.92477 z m 154.64439,-63.99265 c 1.79654,-0.54313 5.09705,-2.86222 7.33446,-5.15354 10.4906,-10.74335 7.35602,-28.52255 -6.13623,-34.80448 -9.32452,-4.34145 -17.7562,-2.91871 -24.87169,4.19678 -7.11549,7.11549 -8.53823,15.54717 -4.19678,24.87169 4.95541,10.64318 15.30683,14.68772 27.87024,10.88955 z m 65.30744,-154.97062 c 16.37458,-8.46762 16.21269,-31.12408 -0.28505,-39.89465 -7.79423,-4.14359 -20.91284,-0.95648 -26.56498,6.45386 -9.77748,12.81894 -3.88071,29.84886 12.13591,35.0486 3.48895,1.13268 11.00218,0.31171 14.71412,-1.60781 z M 436.99798,138.20379 c 13.62826,-6.34525 16.65759,-24.25016 5.91964,-34.98811 -10.73795,-10.737952 -28.64286,-7.708621 -34.98811,5.91964 -4.38328,9.41438 -2.97208,17.47827 4.33805,24.78839 7.23707,7.23708 15.35999,8.6429 24.73042,4.28008 z"
         />
      <path
         style="fill:#616264"
         d="m 252.79998,545.04648 c -14.99932,-1.1494 -31.84917,-3.98584 -47.46666,-7.99035 -15.44486,-3.96025 -35.73333,-10.96197 -35.73333,-12.33186 0,-0.48902 8.93272,-22.39204 19.8505,-48.67338 10.91777,-26.28134 20.07517,-48.55319 20.34978,-49.49302 0.36957,-1.26485 -1.62211,-2.71621 -7.66654,-5.5867 -17.12733,-8.13373 -36.40559,-22.40599 -49.56801,-36.69663 -8.30618,-9.01815 -20.63586,-26.64315 -25.81315,-36.89931 -13.51064,-26.76441 -19.77477,-59.04905 -17.06689,-87.9609 3.75027,-40.04153 19.58086,-73.99943 47.6015,-102.10912 27.81956,-27.90796 62.04221,-43.86519 102.12715,-47.61953 22.14641,-2.07423 48.13256,1.31788 69.48094,9.06971 l 7.29529,2.649 1.64774,-3.9022 c 0.90625,-2.14621 10.17579,-24.454615 20.59897,-49.574237 10.42318,-25.119622 19.16896,-45.889765 19.43507,-46.155874 0.71457,-0.714567 18.03416,7.433647 29.06097,13.67209 75.07849,42.475823 124.78366,116.475971 136.68163,203.489151 2.69579,19.71511 2.43287,52.43704 -0.58158,72.37928 -9.40382,62.21144 -37.3362,116.53209 -81.7052,158.8937 -55.5708,53.05662 -132.49983,80.66623 -208.52818,74.84018 z m 28.35538,-33.1663 c 3.8326,-1.15939 9.45273,-6.34708 11.93362,-11.01537 2.53488,-4.76991 2.24857,-14.00023 -0.60393,-19.46971 -4.65479,-8.92527 -15.0611,-13.66966 -24.46575,-11.1543 -15.33671,4.10195 -21.77936,20.8534 -12.96672,33.71461 5.83264,8.51218 14.98031,11.2894 26.10278,7.92477 z m 154.64439,-63.99265 c 1.79654,-0.54313 5.09705,-2.86222 7.33446,-5.15354 10.4906,-10.74335 7.35602,-28.52255 -6.13623,-34.80448 -9.32452,-4.34145 -17.7562,-2.91871 -24.87169,4.19678 -7.11549,7.11549 -8.53823,15.54717 -4.19678,24.87169 4.95541,10.64318 15.30683,14.68772 27.87024,10.88955 z M 325.41873,288.08205 c 23.41969,-58.32819 42.58125,-106.21657 42.58125,-106.41863 0,-0.20205 -11.82997,-0.23898 -26.28882,-0.0821 l -26.28881,0.28531 -18.97113,44.26666 c -10.52836,24.56657 -19.23759,43.55461 -19.56989,42.66666 -0.32932,-0.88 -7.73761,-21.03999 -16.46287,-44.79999 l -15.86411,-43.2 -28.41052,-0.28409 c -15.62578,-0.15625 -28.41051,0.10103 -28.41051,0.57173 0,0.4707 13.9391,35.39554 30.97579,77.61075 l 30.97578,76.75494 -12.30912,29.00787 c -6.77001,15.95433 -12.30912,29.28504 -12.30912,29.62381 0,0.33876 12.99844,0.48822 28.88542,0.33212 l 28.88542,-0.28381 z m 175.68846,4.83486 c 16.37458,-8.46762 16.21269,-31.12408 -0.28505,-39.89465 -7.79423,-4.14359 -20.91284,-0.95648 -26.56498,6.45386 -9.77748,12.81894 -3.88071,29.84886 12.13591,35.0486 3.48895,1.13268 11.00218,0.31171 14.71412,-1.60781 z M 436.99798,138.20379 c 13.62826,-6.34525 16.65759,-24.25016 5.91964,-34.98811 -10.73795,-10.737952 -28.64286,-7.708621 -34.98811,5.91964 -4.38328,9.41438 -2.97208,17.47827 4.33805,24.78839 7.23707,7.23708 15.35999,8.6429 24.73042,4.28008 z"
         />
      <path
         style="fill:#323232"
         d="m 259.53364,436.25394 c -39.03872,-3.3208 -73.35694,-19.49037 -101.69758,-47.91643 -19.02212,-19.07945 -30.78725,-37.44852 -38.7521,-60.50422 -7.25479,-21.0003 -8.68863,-30.17156 -8.64566,-55.29997 0.0352,-20.56975 0.27544,-23.40719 2.94051,-34.72672 7.81072,-33.17495 22.67873,-59.41596 46.86255,-82.70915 22.29921,-21.47799 48.09597,-35.1258 79.75863,-42.19638 9.75365,-2.17809 14.02381,-2.50108 33.06666,-2.50108 24.31286,0 33.81215,1.48119 54.40052,8.48247 47.04499,15.99809 84.89165,54.41053 100.79629,102.3031 22.30865,67.17651 -0.79101,140.77054 -57.53618,183.30659 -10.44872,7.83233 -29.8074,18.25463 -41.9294,22.57389 -21.80731,7.77028 -46.8608,11.09363 -69.26424,9.1879 z m 65.79967,-146.74378 c 23.17334,-57.80835 42.28853,-105.797 42.47821,-106.64146 0.29306,-1.30466 -3.63395,-1.53119 -26.13333,-1.50753 l -26.47821,0.0279 -18.66666,43.6103 c -10.26667,23.98566 -18.89922,43.38058 -19.18344,43.09982 -0.28422,-0.28076 -7.78177,-20.27792 -16.66121,-44.43814 l -16.14445,-43.92768 -28.93878,-0.28381 c -15.91633,-0.15609 -28.93878,-0.0395 -28.93878,0.25911 0,0.29861 13.99999,35.20918 31.1111,77.57905 17.11111,42.36987 31.11111,77.53858 31.11111,78.15268 0,0.96637 -7.13264,18.07034 -21.02862,50.42629 l -3.77935,8.8 29.55954,-0.0252 29.55954,-0.0252 z"
         />
    </g>
</svg>
